<?xml version="1.0" encoding="utf-8"?>
<!-- Svg Vector Icons : http://www.onlinewebfonts.com/icon -->
<!DOCTYPE svg PUBLIC "-//W3C//DTD SVG 1.1//EN" "http://www.w3.org/Graphics/SVG/1.1/DTD/svg11.dtd">
<svg version="1.1" xmlns="http://www.w3.org/2000/svg" xmlns:xlink="http://www.w3.org/1999/xlink" x="0px" y="0px" viewBox="0 0 256 256" enable-background="new 0 0 256 256" xml:space="preserve">
<metadata> Svg Vector Icons : http://www.onlinewebfonts.com/icon </metadata>
<g><g><g><path fill="#000000" d="M111.9,10.6C100.5,12.6,91,16.9,84,23.3c-2.5,2.2-2.8,2.4-5.9,2.7c-15.3,1.5-28.5,10.6-35.4,24.3c-7.9,15.6-9.3,38.2-4,65.8l0.6,3.4l-1.8,1.2c-7.3,4.8-12.4,13.4-13.6,22.8c-0.9,7.6,0.9,15.1,5.3,21.7c4.2,6.3,10.4,10.8,17.9,13.1l3.2,1l2,5.8c2.3,6.7,7.9,18.2,11.4,23.7c13.3,20.4,31.3,33.2,51.4,36.5c7.3,1.2,18.7,0.8,25.3-0.9c12.3-3.2,22.7-9,32.3-18.2c11.9-11.3,20.1-24.5,26.2-41.9l2-5.8l4.4-2.2c3.6-1.7,5.1-2.9,8.4-6.1c4.5-4.5,6.7-8.1,8.5-13.6c0.9-2.9,1.1-4.5,1.1-9.6c0-5.4-0.2-6.5-1.4-9.8c-2.4-6.9-7.6-13.7-13.5-17.3c-2.6-1.6-2.7-2.1-2.7-11v-6.4l1.5-0.5c0.8-0.3,3.5-1.7,6-3c6.9-3.8,17.2-14.2,18.8-18.9c0.9-2.7,0.1-3.2-6.3-3.5c-4.8-0.2-5.6-0.4-8.4-1.8C212,72,207.2,66.8,199,55c-7-10.1-13.7-17.3-23-24.7c-13.3-10.7-27.7-17.3-42.3-19.7C128.7,9.8,116.9,9.8,111.9,10.6z M113.5,104.5c14.1,3.7,24.8,5.3,38.7,6.2c9.5,0.6,20.7,0.1,28.9-1.2l3.7-0.6l-0.3,21.9l-0.3,21.9l1.4,1.5c1.1,1.1,1.8,1.4,3.4,1.4c2.7,0,4.4-1.7,5.1-5.2c0.3-1.4,1.4-7.1,2.4-12.7c1.1-5.6,2.2-10.2,2.4-10.2c2.1,0,8.5,5.3,10.5,8.8c3.8,6.4,3.9,14.6,0.3,21.1c-2.8,5.2-9.4,9.9-15.1,10.7l-2.5,0.4l-1.5,5.4c-4.9,17-12.4,30.8-22.7,41.4c-6.3,6.5-11.5,10.4-18.5,13.9c-36.8,18.3-76.8-7.9-89.7-58.8l-0.5-2l-4.4-0.2c-3.6-0.1-4.8-0.4-7.5-1.6c-8.4-4-13.7-13.6-12.2-22.4c1-6.1,4.6-11.6,9.5-14.7c2.3-1.5,6.1-3,6.1-2.5c0,0.2,1.1,6.1,2.4,13.2c2.2,11.5,2.6,12.9,3.7,14.1c1,1.1,1.6,1.4,3.4,1.4c2.2,0,3.1-0.6,4.1-2.4c0.6-1,0.7-21.2,0.1-26.5l-0.3-2.9h5.1c7.6,0,11.3-1.2,14.8-4.8c3.4-3.5,5.8-9.6,7-17.6l0.6-3.7l7.3,2.5C103,101.6,109.5,103.5,113.5,104.5z"/><path fill="#000000" d="M92,145.8c-3,1.5-4.5,4.1-4.5,7.7c0,3.7,1.6,6.4,4.6,7.8c6,2.7,12.5-1.3,12.5-7.6c0-2.2-1.3-5.3-2.6-6.6C99.4,144.7,95.2,144.2,92,145.8z"/><path fill="#000000" d="M153.9,145.8c-4.2,2.1-5.9,7.2-3.8,11.4c2.5,5.2,9.3,6.5,13.8,2.6c3.4-3,3.4-9.7,0-12.8C161.2,144.7,157.1,144.2,153.9,145.8z"/><path fill="#000000" d="M102.1,189.3c-2.5,2-0.9,6.2,3.8,10.3c5,4.3,11.1,6.2,19.5,6.2c6.5,0,10.5-0.8,14.8-3c5-2.5,9.8-7.9,9.8-10.9c0-1.8-1.9-3.7-3.7-3.7c-1.3,0-3.4,1.5-3.4,2.3c0,0.3-0.8,1.4-1.7,2.4c-3.5,3.8-10.3,5.9-17.9,5.4c-6.9-0.4-11.7-2.7-15.1-7.3C105.9,188.2,104.2,187.7,102.1,189.3z"/></g></g></g>
</svg>